<svg xmlns="http://www.w3.org/2000/svg" xmlns:xlink="http://www.w3.org/1999/xlink" xmlns:lucid="lucid" width="1760" height="1360"><g transform="translate(0 0)" lucid:page-tab-id="0_0"><path d="M0 0h1760v1360H0z" fill="#fff"/><path d="M611.76 88c0-4.42 3.58-8 8-8h520.78c4.42 0 8 3.58 8 8v26.15c0 4.4-3.58 8-8 8H619.76c-4.42 0-8-3.6-8-8z" stroke="#000" stroke-opacity="0" stroke-width="2" fill="#fff" fill-opacity="0"/><use xlink:href="#a" transform="matrix(1,0,0,1,615.7595767063941,84.00000000002949) translate(105.66925925925926 24.084444444444443)"/><use xlink:href="#b" transform="matrix(1,0,0,1,615.7595767063941,84.00000000002949) translate(210.19395061728395 24.084444444444443)"/><use xlink:href="#c" transform="matrix(1,0,0,1,615.7595767063941,84.00000000002949) translate(322.2211111111111 24.084444444444443)"/><path d="M619.27 120.77h521.76M619.3 120.77h-4.03M1141 120.77h4.03" stroke="#b2b2b2" stroke-width="2" fill="none"/><path d="M611.3 129.07c0-4.4 3.6-8 8-8h521.4c4.4 0 8 3.6 8 8v4c0 4.42-3.6 8-8 8H619.3c-4.4 0-8-3.58-8-8z" stroke="#000" stroke-opacity="0" stroke-width="2" fill="#fff" fill-opacity="0"/><use xlink:href="#d" transform="matrix(1,0,0,1,615.3075907693174,125.07333333324641) translate(181.09986625514404 14.917037037037037)"/><use xlink:href="#e" transform="matrix(1,0,0,1,615.3075907693174,125.07333333324641) translate(195.4613888888889 14.917037037037037)"/><use xlink:href="#f" transform="matrix(1,0,0,1,615.3075907693174,125.07333333324641) translate(214.0718827160494 14.917037037037037)"/><use xlink:href="#g" transform="matrix(1,0,0,1,615.3075907693174,125.07333333324641) translate(236.93134773662553 14.917037037037037)"/><use xlink:href="#h" transform="matrix(1,0,0,1,615.3075907693174,125.07333333324641) translate(249.38083333333333 14.917037037037037)"/><use xlink:href="#i" transform="matrix(1,0,0,1,615.3075907693174,125.07333333324641) translate(296.034537037037 14.917037037037037)"/><use xlink:href="#j" transform="matrix(1,0,0,1,615.3075907693174,125.07333333324641) translate(321.5283641975309 14.917037037037037)"/><path d="M1085.93 1203.27H783.8M1085.9 1203.27h.53" stroke="#666" fill="none"/><path d="M769.05 1203.27l14.26-4.63v9.27z" stroke="#666" fill="#666"/><use xlink:href="#k" transform="matrix(1,0,0,1,853.3533286920981,1207.270383075237) translate(0 10.666666666666668)"/><use xlink:href="#l" transform="matrix(1,0,0,1,853.3533286920981,1207.270383075237) translate(74.70370370370371 10.666666666666668)"/><path d="M351.63 322.26h112c8.84 0 16 26.86 16 60s-7.16 60-16 60h-112l-32-60z" stroke="#c1e4f7" fill="#c1e4f7"/><use xlink:href="#m" transform="matrix(1,0,0,1,324.6318017083397,327.25797982071657) translate(35.55123456790123 46.82222222222222)"/><use xlink:href="#n" transform="matrix(1,0,0,1,324.6318017083397,327.25797982071657) translate(47.773456790123454 46.82222222222222)"/><use xlink:href="#o" transform="matrix(1,0,0,1,324.6318017083397,327.25797982071657) translate(33.68209876543209 76.15555555555557)"/><path d="M466 639.38c0 6.62-26.85 12-60 12-33.12 0-60-5.38-60-12v-96c0-6.63 26.88-12 60-12 33.15 0 60 5.37 60 12z" stroke="#0c7cba" fill="#b2d6ef"/><path d="M466 543.38c0 6.62-26.85 12-60 12-33.12 0-60-5.38-60-12" stroke="#0c7cba" fill="none"/><use xlink:href="#p" transform="matrix(1,0,0,1,351.01314784340354,560.3757438704863) translate(15.329012345679004 38.37777777777778)"/><use xlink:href="#q" transform="matrix(1,0,0,1,351.01314784340354,560.3757438704863) translate(30.88456790123456 38.37777777777778)"/><use xlink:href="#r" transform="matrix(1,0,0,1,351.01314784340354,560.3757438704863) translate(34.324074074074076 57.04444444444445)"/><path d="M691.44 628.36h112c8.84 0 16 26.86 16 60s-7.16 60-16 60h-112l-32-60z" stroke="#ffc374" fill="#ffc374"/><use xlink:href="#m" transform="matrix(1,0,0,1,664.4384834004629,633.3619532444858) translate(32.190123456790126 46.82222222222222)"/><use xlink:href="#s" transform="matrix(1,0,0,1,664.4384834004629,633.3619532444858) translate(44.41234567901235 46.82222222222222)"/><use xlink:href="#t" transform="matrix(1,0,0,1,664.4384834004629,633.3619532444858) translate(37.0432098765432 76.15555555555557)"/><path d="M697.02 371.38h112c8.84 0 16 26.86 16 60 0 33.13-7.16 60-16 60h-112l-32-60z" stroke="#c7e8ac" fill="#c7e8ac"/><use xlink:href="#u" transform="matrix(1,0,0,1,670.0221612686439,376.3757438704863) translate(41.66234567901235 46.82222222222222)"/><use xlink:href="#v" transform="matrix(1,0,0,1,670.0221612686439,376.3757438704863) translate(23.530864197530864 76.15555555555557)"/><path d="M1093.06 364.87h112c8.84 0 16 26.86 16 60 0 33.13-7.16 60-16 60h-112l-32-60z" stroke="#ffeca9" fill="#ffeca9"/><use xlink:href="#w" transform="matrix(1,0,0,1,1066.0644557760743,369.8657196089944) translate(32.495679012345676 46.82222222222222)"/><use xlink:href="#x" transform="matrix(1,0,0,1,1066.0644557760743,369.8657196089944) translate(50.82901234567901 46.82222222222222)"/><use xlink:href="#y" transform="matrix(1,0,0,1,1066.0644557760743,369.8657196089944) translate(48.58641975308642 76.15555555555557)"/><path d="M399.63 443.26v71.45" stroke="#666" fill="none"/><path d="M400.13 443.27h-1v-.5h1z" fill="#666"/><path d="M399.63 529.48L395 515.2h9.27z" stroke="#666" fill="#666"/><path d="M402.5 652.24v36.12h240" stroke="#666" fill="none"/><path d="M403 651.76v.5h-1v-.54z" fill="#666"/><path d="M657.25 688.36L643 693v-9.27z" stroke="#666" fill="#666"/><path d="M1141.06 485.87v202.5H836.32" stroke="#666" fill="none"/><path d="M1141.56 485.88h-1v-.5h1z" fill="#666"/><path d="M821.56 688.36l14.26-4.63V693z" stroke="#666" fill="#666"/><path d="M920 558.73h46.12c3.64 0 6.6 11.78 6.6 26.32 0 14.54-2.96 26.33-6.6 26.33h-46.1l-13.2-26.33z" stroke="#ffbbb1" fill="#ffbbb1"/><use xlink:href="#z" transform="matrix(1,0,0,1,911.8322327900676,563.729638256227) translate(5.13765432098765 26.211111111111112)"/><path d="M922.24 255.73h53.93c4.26 0 7.7 11.87 7.7 26.5s-3.44 26.5-7.7 26.5h-53.93l-15.4-26.5z" stroke="#ffbbb1" fill="#ffbbb1"/><use xlink:href="#A" transform="matrix(1,0,0,1,911.8322327900676,260.7322187412481) translate(20.62222222222222 26.211111111111112)"/><path d="M920.33 448.82h47.23c3.72 0 6.74 11.5 6.74 25.7s-3.02 25.7-6.74 25.7h-47.23l-13.5-25.7z" stroke="#ffbbb1" fill="#ffbbb1"/><use xlink:href="#B" transform="matrix(1,0,0,1,911.8322327900676,453.8242616027941) translate(13.072839506172837 25.711111111111112)"/><path d="M905.77 474.52h-39.9v-41.4h-24.03" stroke="#666" fill="none"/><path d="M906.27 474.52l.26.5h-.78v-1h.78z" fill="#666"/><path d="M827.07 433.13l14.27-4.63v9.27z" stroke="#666" fill="#666"/><path d="M618.9 524.88h53.94c4.26 0 7.7 11.86 7.7 26.5 0 14.63-3.44 26.5-7.7 26.5H618.9l-15.4-26.5z" stroke="#c7e8ac" fill="#c7e8ac"/><use xlink:href="#C" transform="matrix(1,0,0,1,608.5050455647583,529.8778110795716) translate(11.13765432098765 26.211111111111112)"/><path d="M745.02 492.38v119.1" stroke="#666" fill="none"/><path d="M745.52 492.4h-1v-.52h1z" fill="#666"/><path d="M745.02 626.24l-4.63-14.26h9.26z" stroke="#666" fill="#666"/><path d="M1239.32 524.88h61.75c4.87 0 8.82 14.28 8.82 31.9 0 17.63-3.96 31.9-8.83 31.9h-61.75l-17.64-31.9z" stroke="#ffeca9" fill="#ffeca9"/><use xlink:href="#D" transform="matrix(1,0,0,1,1226.6780248971452,529.8778110795716) translate(16.248765432098764 31.711111111111112)"/><path d="M905.75 282.23H865.9v149.15h-24" stroke="#666" fill="none"/><path d="M906.25 282.23l.3.5h-.8v-1h.8z" fill="#666"/><path d="M827.14 431.38l14.27-4.64V436z" stroke="#666" fill="#666"/><path d="M905.77 585.05H865.9V431.38h-24" stroke="#666" fill="none"/><path d="M906.27 585.05l.25.5h-.76v-1h.76z" fill="#666"/><path d="M827.14 431.38l14.27-4.64V436z" stroke="#666" fill="#666"/><path d="M920.33 353.08h47.23c3.72 0 6.74 11.5 6.74 25.7s-3.02 25.7-6.74 25.7h-47.23l-13.5-25.7z" stroke="#f9d2de" fill="#ffbbb1"/><use xlink:href="#E" transform="matrix(1,0,0,1,911.8322327900676,358.0759084389041) translate(8.730246913580245 25.711111111111112)"/><path d="M905.77 378.78H865.9v52.6h-24" stroke="#666" fill="none"/><path d="M906.27 378.78l.26.5h-.78v-1h.78z" fill="#666"/><path d="M827.14 431.38l14.27-4.64V436z" stroke="#666" fill="#666"/><path d="M975.3 378.78h42.35v46.1h26.46" stroke="#666" fill="none"/><path d="M975.32 379.28h-.56l.04-.48v-.52h.52z" fill="#666"/><path d="M1058.88 424.87l-14.27 4.63v-9.27z" stroke="#666" fill="#666"/><path d="M975.3 474.52h42.35v-49.65h26.46" stroke="#666" fill="none"/><path d="M975.32 475.02h-.56l.04-.48v-.52h.52z" fill="#666"/><path d="M1058.88 424.87l-14.27 4.63v-9.27z" stroke="#666" fill="#666"/><path d="M973.7 585.05h43.15V424.87h27.26" stroke="#666" fill="none"/><path d="M973.72 585.55h-.55l.04-.48v-.52h.52z" fill="#666"/><path d="M1058.88 424.87l-14.27 4.63v-9.27z" stroke="#666" fill="#666"/><path d="M984.87 282.23h31.42v142.64h27.8" stroke="#666" fill="none"/><path d="M984.9 282.73h-.57l.05-.5-.02-.5h.53z" fill="#666"/><path d="M1058.88 424.87l-14.27 4.63v-9.27z" stroke="#666" fill="#666"/><path d="M1265.78 523.88v-99h-27.83" stroke="#666" fill="none"/><path d="M1266.28 524.38h-1v-.52h1z" fill="#666"/><path d="M1223.18 424.87l14.27-4.64v9.27z" stroke="#666" fill="#666"/><path d="M642.03 523.88v-92.5h6.04" stroke="#666" fill="none"/><path d="M642.53 524.38h-1v-.52h1z" fill="#666"/><path d="M662.84 431.38L648.57 436v-9.26z" stroke="#666" fill="#666"/><path d="M691.44 939.03h112c8.84 0 16 26.86 16 60 0 33.13-7.16 60-16 60h-112l-32-60z" stroke="#ff8f80" fill="#ff8f80"/><g><use xlink:href="#m" transform="matrix(1,0,0,1,664.4384834004629,944.0271122691018) translate(30.153086419753087 46.82222222222222)"/><use xlink:href="#F" transform="matrix(1,0,0,1,664.4384834004629,944.0271122691018) translate(42.37530864197531 46.82222222222222)"/><use xlink:href="#G" transform="matrix(1,0,0,1,664.4384834004629,944.0271122691018) translate(37.0432098765432 76.15555555555557)"/></g><path d="M659.44 798.85h160v89.7h-160z" stroke="#b2b2b2" fill="#b2b2b2"/><g><use xlink:href="#H" transform="matrix(1,0,0,1,664.4384834004629,803.8502298275705) translate(13.890740740740739 46.488888888888894)"/></g><path d="M739.44 749.36v32.6" stroke="#333" fill="none"/><path d="M739.94 749.37h-1v-.5h1z" fill="#333"/><path d="M739.44 796.73l-4.64-14.26h9.27z" stroke="#333" fill="#333"/><path d="M739.44 889.54v32.6" stroke="#000" fill="none"/><path d="M739.94 889.55h-1v-.5h1z"/><path d="M739.44 936.9l-4.64-14.26h9.27z" stroke="#000"/><defs><path fill="#b2b2b2" d="M67-125c0 53 21 87 73 88 37 1 54-22 65-47l45 17C233-25 199 4 140 4 58 4 20-42 15-125 8-235 124-281 211-232c18 10 29 29 36 50l-46 12c-8-25-30-41-62-41-52 0-71 34-72 86" id="I"/><path fill="#b2b2b2" d="M110-194c64 0 96 36 96 99 0 64-35 99-97 99-61 0-95-36-95-99 0-62 34-99 96-99zm-1 164c35 0 45-28 45-65 0-40-10-65-43-65-34 0-45 26-45 65 0 36 10 65 43 65" id="J"/><path fill="#b2b2b2" d="M135-194c87-1 58 113 63 194h-50c-7-57 23-157-34-157-59 0-34 97-39 157H25l-1-190h47c2 12-1 28 3 38 12-26 28-41 61-42" id="K"/><path fill="#b2b2b2" d="M115-3C79 11 28 4 28-45v-112H4v-33h27l15-45h31v45h36v33H77v99c-1 23 16 31 38 25v30" id="L"/><path fill="#b2b2b2" d="M185-48c-13 30-37 53-82 52C43 2 14-33 14-96s30-98 90-98c62 0 83 45 84 108H66c0 31 8 55 39 56 18 0 30-7 34-22zm-45-69c5-46-57-63-70-21-2 6-4 13-4 21h74" id="M"/><path fill="#b2b2b2" d="M144 0l-44-69L55 0H2l70-98-66-92h53l41 62 40-62h54l-67 91 71 99h-54" id="N"/><g id="a"><use transform="matrix(0.0728395061728395,0,0,0.0728395061728395,0,0)" xlink:href="#I"/><use transform="matrix(0.0728395061728395,0,0,0.0728395061728395,18.86543209876543,0)" xlink:href="#J"/><use transform="matrix(0.0728395061728395,0,0,0.0728395061728395,34.81728395061728,0)" xlink:href="#K"/><use transform="matrix(0.0728395061728395,0,0,0.0728395061728395,50.76913580246913,0)" xlink:href="#L"/><use transform="matrix(0.0728395061728395,0,0,0.0728395061728395,59.43703703703703,0)" xlink:href="#M"/><use transform="matrix(0.0728395061728395,0,0,0.0728395061728395,74.00493827160493,0)" xlink:href="#N"/><use transform="matrix(0.0728395061728395,0,0,0.0728395061728395,88.57283950617283,0)" xlink:href="#L"/></g><path fill="#b2b2b2" d="M24-248c120-7 223 5 221 122C244-46 201 0 124 0H24v-248zM76-40c74 7 117-18 117-86 0-67-45-88-117-82v168" id="O"/><path fill="#b2b2b2" d="M25-224v-37h50v37H25zM25 0v-190h50V0H25" id="P"/><path fill="#b2b2b2" d="M133-34C117-15 103 5 69 4 32 3 11-16 11-54c-1-60 55-63 116-61 1-26-3-47-28-47-18 1-26 9-28 27l-52-2c7-38 36-58 82-57s74 22 75 68l1 82c-1 14 12 18 25 15v27c-30 8-71 5-69-32zm-48 3c29 0 43-24 42-57-32 0-66-3-65 30 0 17 8 27 23 27" id="Q"/><path fill="#b2b2b2" d="M195-6C206 82 75 100 31 46c-4-6-6-13-8-21l49-6c3 16 16 24 34 25 40 0 42-37 40-79-11 22-30 35-61 35-53 0-70-43-70-97 0-56 18-96 73-97 30 0 46 14 59 34l2-30h47zm-90-29c32 0 41-27 41-63 0-35-9-62-40-62-32 0-39 29-40 63 0 36 9 62 39 62" id="R"/><path fill="#b2b2b2" d="M135-150c-39-12-60 13-60 57V0H25l-1-190h47c2 13-1 29 3 40 6-28 27-53 61-41v41" id="S"/><path fill="#b2b2b2" d="M220-157c-53 9-28 100-34 157h-49v-107c1-27-5-49-29-50C55-147 81-57 75 0H25l-1-190h47c2 12-1 28 3 38 10-53 101-56 108 0 13-22 24-43 59-42 82 1 51 116 57 194h-49v-107c-1-25-5-48-29-50" id="T"/><g id="b"><use transform="matrix(0.0728395061728395,0,0,0.0728395061728395,0,0)" xlink:href="#O"/><use transform="matrix(0.0728395061728395,0,0,0.0728395061728395,18.86543209876543,0)" xlink:href="#P"/><use transform="matrix(0.0728395061728395,0,0,0.0728395061728395,26.14938271604938,0)" xlink:href="#Q"/><use transform="matrix(0.0728395061728395,0,0,0.0728395061728395,40.717283950617286,0)" xlink:href="#R"/><use transform="matrix(0.0728395061728395,0,0,0.0728395061728395,56.66913580246913,0)" xlink:href="#S"/><use transform="matrix(0.0728395061728395,0,0,0.0728395061728395,66.86666666666666,0)" xlink:href="#Q"/><use transform="matrix(0.0728395061728395,0,0,0.0728395061728395,81.43456790123457,0)" xlink:href="#T"/></g><path fill="#b2b2b2" d="M24 0v-248h195v40H76v63h132v40H76v65h150V0H24" id="U"/><path fill="#b2b2b2" d="M135-194c53 0 70 44 70 98 0 56-19 98-73 100-31 1-45-17-59-34 3 33 2 69 2 105H25l-1-265h48c2 10 0 23 3 31 11-24 29-35 60-35zM114-30c33 0 39-31 40-66 0-38-9-64-40-64-56 0-55 130 0 130" id="V"/><path fill="#b2b2b2" d="M25 0v-261h50V0H25" id="W"/><g id="c"><use transform="matrix(0.0728395061728395,0,0,0.0728395061728395,0,0)" xlink:href="#U"/><use transform="matrix(0.0728395061728395,0,0,0.0728395061728395,17.48148148148148,0)" xlink:href="#N"/><use transform="matrix(0.0728395061728395,0,0,0.0728395061728395,32.04938271604938,0)" xlink:href="#Q"/><use transform="matrix(0.0728395061728395,0,0,0.0728395061728395,46.61728395061728,0)" xlink:href="#T"/><use transform="matrix(0.0728395061728395,0,0,0.0728395061728395,69.92592592592592,0)" xlink:href="#V"/><use transform="matrix(0.0728395061728395,0,0,0.0728395061728395,85.87777777777778,0)" xlink:href="#W"/><use transform="matrix(0.0728395061728395,0,0,0.0728395061728395,93.16172839506173,0)" xlink:href="#M"/></g><path fill="#b2b2b2" d="M280-15l-39-105 20-9 57 158-22 8-10-33-148 22-5-22 24-3 33-141c9-45 15-91 21-136l24 3-23 138L180-1zM47 12c28 3 63 10 62-25 4-21 6-49 7-73H29l15-99h74v-62H36v-19h105v100H64l-10 61h86c-6 69 11 164-89 140" id="X"/><use transform="matrix(0.04248971193415638,0,0,0.04248971193415638,0,0)" xlink:href="#X" id="d"/><path fill="#b2b2b2" d="M304-18c-39-18-70-45-98-76h-73c-12 16-27 33-43 46h67v-35h23v35h70v18h-70v40h127v20H32V10h125v-40H89v-17C72-34 55-21 35-12L22-31c33-13 62-37 83-63H26v-19h61v-117H37v-19h50v-31h24v31h115v-31h23v31h53v19h-53v117h63v19h-77c22 23 51 44 83 56zM111-157h115v-28H111v28zm0-46h115v-27H111v27zm0 90h115v-26H111v26" id="Y"/><use transform="matrix(0.04248971193415638,0,0,0.04248971193415638,0,0)" xlink:href="#Y" id="e"/><path fill="#b2b2b2" d="M193-224c29 34 76 64 124 79l-11 19c-51-20-96-47-129-87 3 19 2 42 2 64h-23l1-58c-32 37-76 66-125 87l-10-19c48-21 92-48 124-85H30v-19h126v-37h23v37h129v19H193zm63 99c-21 18-50 39-75 53v4h128v18H181c2 52 10 102-59 86-3 0-7-1-11-1l-4-23c17 4 52 14 52-8v-54H29v-18h130v-21c30 1 42-20 60-32H83v-18h161" id="Z"/><use transform="matrix(0.04248971193415638,0,0,0.04248971193415638,0,0)" xlink:href="#Z" id="f"/><path fill="#b2b2b2" d="M32 76v-337h29V76H32" id="aa"/><use transform="matrix(0.04248971193415638,0,0,0.04248971193415638,0,0)" xlink:href="#aa" id="g"/><path fill="#b2b2b2" d="M240 0l2-218c-23 76-54 145-80 218h-23L58-218 59 0H30v-248h44l77 211c21-75 51-140 76-211h43V0h-30" id="ab"/><path fill="#b2b2b2" d="M141-36C126-15 110 5 73 4 37 3 15-17 15-53c-1-64 63-63 125-63 3-35-9-54-41-54-24 1-41 7-42 31l-33-3c5-37 33-52 76-52 45 0 72 20 72 64v82c-1 20 7 32 28 27v20c-31 9-61-2-59-35zM48-53c0 20 12 33 32 33 41-3 63-29 60-74-43 2-92-5-92 41" id="ac"/><path fill="#b2b2b2" d="M114-163C36-179 61-72 57 0H25l-1-190h30c1 12-1 29 2 39 6-27 23-49 58-41v29" id="ad"/><path fill="#b2b2b2" d="M96-169c-40 0-48 33-48 73s9 75 48 75c24 0 41-14 43-38l32 2c-6 37-31 61-74 61-59 0-76-41-82-99-10-93 101-131 147-64 4 7 5 14 7 22l-32 3c-4-21-16-35-41-35" id="ae"/><path fill="#b2b2b2" d="M106-169C34-169 62-67 57 0H25v-261h32l-1 103c12-21 28-36 61-36 89 0 53 116 60 194h-32v-121c2-32-8-49-39-48" id="af"/><g id="h"><use transform="matrix(0.04248971193415638,0,0,0.04248971193415638,0,0)" xlink:href="#ab"/><use transform="matrix(0.04248971193415638,0,0,0.04248971193415638,12.704423868312757,0)" xlink:href="#ac"/><use transform="matrix(0.04248971193415638,0,0,0.04248971193415638,21.20236625514403,0)" xlink:href="#ad"/><use transform="matrix(0.04248971193415638,0,0,0.04248971193415638,26.25864197530864,0)" xlink:href="#ae"/><use transform="matrix(0.04248971193415638,0,0,0.04248971193415638,33.90679012345679,0)" xlink:href="#af"/></g><path fill="#b2b2b2" d="M126-127c33 6 58 20 58 59 0 88-139 92-164 29-3-8-5-16-6-25l32-3c6 27 21 44 54 44 32 0 52-15 52-46 0-38-36-46-79-43v-28c39 1 72-4 72-42 0-27-17-43-46-43-28 0-47 15-49 41l-32-3c6-42 35-63 81-64 48-1 79 21 79 65 0 36-21 52-52 59" id="ag"/><path fill="#b2b2b2" d="M27 0v-27h64v-190l-56 39v-29l58-41h29v221h61V0H27" id="ah"/><path fill="#b2b2b2" d="M68-38c1 34 0 65-14 84H32c9-13 17-26 17-46H33v-38h35" id="ai"/><g id="i"><use transform="matrix(0.04248971193415638,0,0,0.04248971193415638,0,0)" xlink:href="#ag"/><use transform="matrix(0.04248971193415638,0,0,0.04248971193415638,8.497942386831275,0)" xlink:href="#ah"/><use transform="matrix(0.04248971193415638,0,0,0.04248971193415638,16.99588477366255,0)" xlink:href="#ai"/></g><path fill="#b2b2b2" d="M101-251c82-7 93 87 43 132L82-64C71-53 59-42 53-27h129V0H18c2-99 128-94 128-182 0-28-16-43-45-43s-46 15-49 41l-32-3c6-41 34-60 81-64" id="aj"/><path fill="#b2b2b2" d="M101-251c68 0 85 55 85 127S166 4 100 4C33 4 14-52 14-124c0-73 17-127 87-127zm-1 229c47 0 54-49 54-102s-4-102-53-102c-51 0-55 48-55 102 0 53 5 102 54 102" id="ak"/><path fill="#b2b2b2" d="M99-251c64 0 84 50 84 122C183-37 130 33 47-8c-14-7-20-23-25-40l30-5c6 39 69 39 84 7 9-19 16-44 16-74-10 22-31 35-62 35-49 0-73-33-73-83 0-54 28-83 82-83zm-1 141c31-1 51-18 51-49 0-36-14-67-51-67-34 0-49 23-49 58 0 34 15 58 49 58" id="al"/><g id="j"><use transform="matrix(0.04248971193415638,0,0,0.04248971193415638,0,0)" xlink:href="#aj"/><use transform="matrix(0.04248971193415638,0,0,0.04248971193415638,8.497942386831275,0)" xlink:href="#ak"/><use transform="matrix(0.04248971193415638,0,0,0.04248971193415638,16.99588477366255,0)" xlink:href="#ah"/><use transform="matrix(0.04248971193415638,0,0,0.04248971193415638,25.493827160493822,0)" xlink:href="#al"/></g><path fill="#666" d="M233-177c-1 41-23 64-60 70L243 0h-38l-65-103H63V0H30v-248c88 3 205-21 203 71zM63-129c60-2 137 13 137-47 0-61-80-42-137-45v92" id="am"/><path fill="#666" d="M100-194c63 0 86 42 84 106H49c0 40 14 67 53 68 26 1 43-12 49-29l28 8c-11 28-37 45-77 45C44 4 14-33 15-96c1-61 26-98 85-98zm52 81c6-60-76-77-97-28-3 7-6 17-6 28h103" id="an"/><path fill="#666" d="M135-143c-3-34-86-38-87 0 15 53 115 12 119 90S17 21 10-45l28-5c4 36 97 45 98 0-10-56-113-15-118-90-4-57 82-63 122-42 12 7 21 19 24 35" id="ao"/><path fill="#666" d="M114-163C36-179 61-72 57 0H25l-1-190h30c1 12-1 29 2 39 6-27 23-49 58-41v29" id="ap"/><path fill="#666" d="M108 0H70L1-190h34L89-25l56-165h34" id="aq"/><path fill="#666" d="M141-36C126-15 110 5 73 4 37 3 15-17 15-53c-1-64 63-63 125-63 3-35-9-54-41-54-24 1-41 7-42 31l-33-3c5-37 33-52 76-52 45 0 72 20 72 64v82c-1 20 7 32 28 27v20c-31 9-61-2-59-35zM48-53c0 20 12 33 32 33 41-3 63-29 60-74-43 2-92-5-92 41" id="ar"/><path fill="#666" d="M59-47c-2 24 18 29 38 22v24C64 9 27 4 27-40v-127H5v-23h24l9-43h21v43h35v23H59v120" id="as"/><path fill="#666" d="M24-231v-30h32v30H24zM24 0v-190h32V0H24" id="at"/><path fill="#666" d="M100-194c62-1 85 37 85 99 1 63-27 99-86 99S16-35 15-95c0-66 28-99 85-99zM99-20c44 1 53-31 53-75 0-43-8-75-51-75s-53 32-53 75 10 74 51 75" id="au"/><path fill="#666" d="M117-194c89-4 53 116 60 194h-32v-121c0-31-8-49-39-48C34-167 62-67 57 0H25l-1-190h30c1 10-1 24 2 32 11-22 29-35 61-36" id="av"/><g id="k"><use transform="matrix(0.03703703703703704,0,0,0.03703703703703704,0,0)" xlink:href="#am"/><use transform="matrix(0.03703703703703704,0,0,0.03703703703703704,9.592592592592593,0)" xlink:href="#an"/><use transform="matrix(0.03703703703703704,0,0,0.03703703703703704,17,0)" xlink:href="#ao"/><use transform="matrix(0.03703703703703704,0,0,0.03703703703703704,23.66666666666667,0)" xlink:href="#an"/><use transform="matrix(0.03703703703703704,0,0,0.03703703703703704,31.07407407407408,0)" xlink:href="#ap"/><use transform="matrix(0.03703703703703704,0,0,0.03703703703703704,35.48148148148148,0)" xlink:href="#aq"/><use transform="matrix(0.03703703703703704,0,0,0.03703703703703704,42.14814814814815,0)" xlink:href="#ar"/><use transform="matrix(0.03703703703703704,0,0,0.03703703703703704,49.55555555555556,0)" xlink:href="#as"/><use transform="matrix(0.03703703703703704,0,0,0.03703703703703704,53.25925925925926,0)" xlink:href="#at"/><use transform="matrix(0.03703703703703704,0,0,0.03703703703703704,56.18518518518518,0)" xlink:href="#au"/><use transform="matrix(0.03703703703703704,0,0,0.03703703703703704,63.592592592592595,0)" xlink:href="#av"/></g><path fill="#666" d="M96-169c-40 0-48 33-48 73s9 75 48 75c24 0 41-14 43-38l32 2c-6 37-31 61-74 61-59 0-76-41-82-99-10-93 101-131 147-64 4 7 5 14 7 22l-32 3c-4-21-16-35-41-35" id="aw"/><path fill="#666" d="M101-234c-31-9-42 10-38 44h38v23H63V0H32v-167H5v-23h27c-7-52 17-82 69-68v24" id="ax"/><path fill="#666" d="M210-169c-67 3-38 105-44 169h-31v-121c0-29-5-50-35-48C34-165 62-65 56 0H25l-1-190h30c1 10-1 24 2 32 10-44 99-50 107 0 11-21 27-35 58-36 85-2 47 119 55 194h-31v-121c0-29-5-49-35-48" id="ay"/><g id="l"><use transform="matrix(0.03703703703703704,0,0,0.03703703703703704,0,0)" xlink:href="#aw"/><use transform="matrix(0.03703703703703704,0,0,0.03703703703703704,6.666666666666668,0)" xlink:href="#au"/><use transform="matrix(0.03703703703703704,0,0,0.03703703703703704,14.074074074074076,0)" xlink:href="#av"/><use transform="matrix(0.03703703703703704,0,0,0.03703703703703704,21.481481481481485,0)" xlink:href="#ax"/><use transform="matrix(0.03703703703703704,0,0,0.03703703703703704,25.185185185185187,0)" xlink:href="#at"/><use transform="matrix(0.03703703703703704,0,0,0.03703703703703704,28.111111111111118,0)" xlink:href="#ap"/><use transform="matrix(0.03703703703703704,0,0,0.03703703703703704,32.518518518518526,0)" xlink:href="#ay"/><use transform="matrix(0.03703703703703704,0,0,0.03703703703703704,43.592592592592595,0)" xlink:href="#ar"/><use transform="matrix(0.03703703703703704,0,0,0.03703703703703704,51.000000000000014,0)" xlink:href="#as"/><use transform="matrix(0.03703703703703704,0,0,0.03703703703703704,54.70370370370372,0)" xlink:href="#at"/><use transform="matrix(0.03703703703703704,0,0,0.03703703703703704,57.62962962962964,0)" xlink:href="#au"/><use transform="matrix(0.03703703703703704,0,0,0.03703703703703704,65.03703703703705,0)" xlink:href="#av"/></g><path fill="#666" d="M41-130c7 48 86 23 86 84 0 56-69 57-112 41v-40c20 0 9 29 31 31 35 19 77-26 41-50-27-18-72-13-72-59 0-50 58-52 100-41v36c-19 1-8-25-28-25-21-7-50-1-46 23" id="az"/><path fill="#666" d="M84-170c49 0 66 33 63 87H46c-8 60 38 80 95 63v10C128-2 108 4 88 4 34 4 14-29 14-84c-1-54 22-86 70-86zm33 73c12-57-57-82-69-24-1 7-2 15-2 24h71" id="aA"/><path fill="#666" d="M65-12l28 4v8H7v-8l28-4v-226l-28-4v-8h58v238" id="aB"/><path fill="#666" d="M45-84c0 64 52 80 104 63 1 25-30 25-55 25-56 0-80-32-80-88 0-76 62-98 131-80v46h-10c-5-15-4-31-23-35-47-10-67 21-67 69" id="aC"/><path fill="#666" d="M54-38c-1 25 24 26 44 20v12C71 10 25 9 25-35v-115H4c-2-14 14-10 21-15l18-38h11v38h38v15H54v112" id="aD"/><g id="n"><use transform="matrix(0.06790123456790124,0,0,0.06790123456790124,0,0)" xlink:href="#az"/><use transform="matrix(0.06790123456790124,0,0,0.06790123456790124,9.506172839506174,0)" xlink:href="#aA"/><use transform="matrix(0.06790123456790124,0,0,0.06790123456790124,20.302469135802472,0)" xlink:href="#aB"/><use transform="matrix(0.06790123456790124,0,0,0.06790123456790124,27.092592592592595,0)" xlink:href="#aA"/><use transform="matrix(0.06790123456790124,0,0,0.06790123456790124,37.88888888888889,0)" xlink:href="#aC"/><use transform="matrix(0.06790123456790124,0,0,0.06790123456790124,48.68518518518519,0)" xlink:href="#aD"/></g><path fill="#666" d="M141-152c28 39 5 97-54 97-9 0-20-2-27-3L49-35c29 22 130-14 124 52-4 45-38 57-88 61C21 83-8 26 45-2 33-6 22-15 21-31l28-31c-19-9-28-26-28-51-2-51 53-65 100-52l38-20 7 8zM85 64c35 0 61-11 61-42 0-35-57-17-89-21-9 8-16 19-17 34 0 25 19 29 45 29zM52-113c1 26 7 46 35 44 28-1 34-16 35-44 0-26-6-43-34-43s-36 17-36 43" id="aE"/><path fill="#666" d="M57-145c16-10 35-24 60-25v45c-19 1-8-30-40-17l-20 6v124l29 4v8H7v-8l21-4v-141c-8-3-24 2-21-12h48" id="aF"/><path fill="#666" d="M32-163c41-10 102-14 102 39v112c8 3 24-2 21 12h-45l-4-17C83 13 3 13 13-46c-2-50 45-50 92-51 4-36-5-70-42-56-6 2-12 4-16 6-4 7 0 23-15 20v-36zM42-47c0 41 41 33 63 22v-59c-34 1-63-1-63 37" id="aG"/><path fill="#666" d="M166-85c3 67-44 102-111 85l1 64 29 4v9H6v-9l21-4v-217c-7-3-22 1-19-12h46l1 9c11-8 26-14 45-14 47 2 64 36 66 85zM56-13c53 14 83-14 78-72 7-53-33-79-78-60v132" id="aH"/><path fill="#666" d="M126-119c3-38-42-31-69-25v132l23 4v8H7v-8l21-4v-226l-24-4v-8h53l-1 98c31-22 99-31 99 31v109c7 3 23-1 20 12h-71v-8l22-4v-107" id="aI"/><path fill="#666" d="M47-200c-23 0-25-39 0-38 13 0 18 7 20 19-1 11-8 19-20 19zM65-12l28 4v8H8v-8l28-4v-141l-24-4v-8h53v153" id="aJ"/><g id="o"><use transform="matrix(0.06790123456790124,0,0,0.06790123456790124,0,0)" xlink:href="#aE"/><use transform="matrix(0.06790123456790124,0,0,0.06790123456790124,12.222222222222223,0)" xlink:href="#aF"/><use transform="matrix(0.06790123456790124,0,0,0.06790123456790124,20.302469135802472,0)" xlink:href="#aG"/><use transform="matrix(0.06790123456790124,0,0,0.06790123456790124,31.09876543209877,0)" xlink:href="#aH"/><use transform="matrix(0.06790123456790124,0,0,0.06790123456790124,43.320987654320994,0)" xlink:href="#aI"/><use transform="matrix(0.06790123456790124,0,0,0.06790123456790124,55.543209876543216,0)" xlink:href="#aJ"/><use transform="matrix(0.06790123456790124,0,0,0.06790123456790124,62.33333333333334,0)" xlink:href="#aC"/><use transform="matrix(0.06790123456790124,0,0,0.06790123456790124,73.12962962962965,0)" xlink:href="#az"/></g><g id="q"><use transform="matrix(0.04320987654320988,0,0,0.04320987654320988,0,0)" xlink:href="#aE"/><use transform="matrix(0.04320987654320988,0,0,0.04320987654320988,7.777777777777779,0)" xlink:href="#aF"/><use transform="matrix(0.04320987654320988,0,0,0.04320987654320988,12.919753086419751,0)" xlink:href="#aG"/><use transform="matrix(0.04320987654320988,0,0,0.04320987654320988,19.790123456790123,0)" xlink:href="#aH"/><use transform="matrix(0.04320987654320988,0,0,0.04320987654320988,27.567901234567906,0)" xlink:href="#aI"/><use transform="matrix(0.04320987654320988,0,0,0.04320987654320988,35.345679012345684,0)" xlink:href="#aJ"/><use transform="matrix(0.04320987654320988,0,0,0.04320987654320988,39.66666666666667,0)" xlink:href="#aC"/><use transform="matrix(0.04320987654320988,0,0,0.04320987654320988,46.537037037037045,0)" xlink:href="#az"/></g><path fill="#666" d="M53-14c58 12 82-15 82-73 0-52-35-77-82-58v131zM89 4C64 4 42-2 24-9v-229l-24-4v-8h53l-1 94c48-33 114-4 114 69 0 57-23 91-77 91" id="aK"/><path fill="#666" d="M161-154L85 37C75 66 49 86 8 75V39c18-2 6 24 29 21 30-4 38-32 47-58L21-153c-7-3-20 0-17-12h77v8l-26 4 45 116 43-116-26-4v-8h62v8" id="aL"/><g id="r"><use transform="matrix(0.04320987654320988,0,0,0.04320987654320988,0,0)" xlink:href="#aB"/><use transform="matrix(0.04320987654320988,0,0,0.04320987654320988,4.320987654320988,0)" xlink:href="#aJ"/><use transform="matrix(0.04320987654320988,0,0,0.04320987654320988,8.641975308641976,0)" xlink:href="#aK"/><use transform="matrix(0.04320987654320988,0,0,0.04320987654320988,16.419753086419753,0)" xlink:href="#aF"/><use transform="matrix(0.04320987654320988,0,0,0.04320987654320988,21.561728395061728,0)" xlink:href="#aG"/><use transform="matrix(0.04320987654320988,0,0,0.04320987654320988,28.432098765432098,0)" xlink:href="#aF"/><use transform="matrix(0.04320987654320988,0,0,0.04320987654320988,33.574074074074076,0)" xlink:href="#aL"/></g><path fill="#666" d="M125-118c4-37-41-34-68-26v132l23 4v8H8C5-13 21-9 28-12v-141c-7-3-23 1-20-12h47l2 13c31-23 98-29 98 31v109c7 3 23-1 20 12h-72v-8l22-4v-106" id="aM"/><g id="s"><use transform="matrix(0.06790123456790124,0,0,0.06790123456790124,0,0)" xlink:href="#az"/><use transform="matrix(0.06790123456790124,0,0,0.06790123456790124,9.506172839506174,0)" xlink:href="#aC"/><use transform="matrix(0.06790123456790124,0,0,0.06790123456790124,20.302469135802472,0)" xlink:href="#aF"/><use transform="matrix(0.06790123456790124,0,0,0.06790123456790124,28.38271604938272,0)" xlink:href="#aA"/><use transform="matrix(0.06790123456790124,0,0,0.06790123456790124,39.17901234567902,0)" xlink:href="#aA"/><use transform="matrix(0.06790123456790124,0,0,0.06790123456790124,49.97530864197532,0)" xlink:href="#aM"/></g><path fill="#666" d="M75-17c87 13 134-18 134-103 0-78-51-106-134-100v203zm171-102C246 5 139 7 10 0v-9l31-5v-208l-31-4v-10h107c82 0 129 35 129 117" id="aN"/><g id="t"><use transform="matrix(0.06790123456790124,0,0,0.06790123456790124,0,0)" xlink:href="#aN"/><use transform="matrix(0.06790123456790124,0,0,0.06790123456790124,17.58641975308642,0)" xlink:href="#aJ"/><use transform="matrix(0.06790123456790124,0,0,0.06790123456790124,24.376543209876544,0)" xlink:href="#az"/><use transform="matrix(0.06790123456790124,0,0,0.06790123456790124,33.88271604938272,0)" xlink:href="#aH"/><use transform="matrix(0.06790123456790124,0,0,0.06790123456790124,46.104938271604944,0)" xlink:href="#aB"/><use transform="matrix(0.06790123456790124,0,0,0.06790123456790124,52.89506172839507,0)" xlink:href="#aG"/><use transform="matrix(0.06790123456790124,0,0,0.06790123456790124,63.69135802469137,0)" xlink:href="#aL"/></g><g id="u"><use transform="matrix(0.06790123456790124,0,0,0.06790123456790124,0,0)" xlink:href="#az"/><use transform="matrix(0.06790123456790124,0,0,0.06790123456790124,9.506172839506174,0)" xlink:href="#aA"/><use transform="matrix(0.06790123456790124,0,0,0.06790123456790124,20.302469135802472,0)" xlink:href="#aB"/><use transform="matrix(0.06790123456790124,0,0,0.06790123456790124,27.092592592592595,0)" xlink:href="#aA"/><use transform="matrix(0.06790123456790124,0,0,0.06790123456790124,37.88888888888889,0)" xlink:href="#aC"/><use transform="matrix(0.06790123456790124,0,0,0.06790123456790124,48.68518518518519,0)" xlink:href="#aD"/></g><path fill="#666" d="M90-170c52 0 76 32 76 87 0 54-24 87-77 87-51 0-75-34-75-87 0-54 24-87 76-87zM89-10c39 0 46-35 46-73 0-39-7-73-46-73-39 1-44 34-44 73s6 72 44 73" id="aO"/><path fill="#666" d="M13-81c0-71 46-101 114-85l-1-72-28-4v-8h57v238c8 3 24-2 21 12h-47l-2-12C80 23 13-1 13-81zm77-74c-37 1-44 33-45 74 0 38 9 66 45 66 14 0 27-3 36-7v-130c-10-1-24-3-36-3" id="aP"/><g id="v"><use transform="matrix(0.06790123456790124,0,0,0.06790123456790124,0,0)" xlink:href="#aC"/><use transform="matrix(0.06790123456790124,0,0,0.06790123456790124,10.796296296296298,0)" xlink:href="#aO"/><use transform="matrix(0.06790123456790124,0,0,0.06790123456790124,23.01851851851852,0)" xlink:href="#aO"/><use transform="matrix(0.06790123456790124,0,0,0.06790123456790124,35.24074074074074,0)" xlink:href="#aF"/><use transform="matrix(0.06790123456790124,0,0,0.06790123456790124,43.32098765432099,0)" xlink:href="#aP"/><use transform="matrix(0.06790123456790124,0,0,0.06790123456790124,55.54320987654321,0)" xlink:href="#aJ"/><use transform="matrix(0.06790123456790124,0,0,0.06790123456790124,62.333333333333336,0)" xlink:href="#aM"/><use transform="matrix(0.06790123456790124,0,0,0.06790123456790124,74.55555555555556,0)" xlink:href="#aG"/><use transform="matrix(0.06790123456790124,0,0,0.06790123456790124,85.35185185185185,0)" xlink:href="#aD"/><use transform="matrix(0.06790123456790124,0,0,0.06790123456790124,92.14197530864197,0)" xlink:href="#aA"/></g><g id="x"><use transform="matrix(0.06790123456790124,0,0,0.06790123456790124,0,0)" xlink:href="#az"/><use transform="matrix(0.06790123456790124,0,0,0.06790123456790124,9.506172839506174,0)" xlink:href="#aA"/><use transform="matrix(0.06790123456790124,0,0,0.06790123456790124,20.302469135802472,0)" xlink:href="#aB"/><use transform="matrix(0.06790123456790124,0,0,0.06790123456790124,27.092592592592595,0)" xlink:href="#aA"/><use transform="matrix(0.06790123456790124,0,0,0.06790123456790124,37.88888888888889,0)" xlink:href="#aC"/><use transform="matrix(0.06790123456790124,0,0,0.06790123456790124,48.68518518518519,0)" xlink:href="#aD"/></g><g id="y"><use transform="matrix(0.06790123456790124,0,0,0.06790123456790124,0,0)" xlink:href="#aG"/><use transform="matrix(0.06790123456790124,0,0,0.06790123456790124,10.796296296296298,0)" xlink:href="#aM"/><use transform="matrix(0.06790123456790124,0,0,0.06790123456790124,23.01851851851852,0)" xlink:href="#aE"/><use transform="matrix(0.06790123456790124,0,0,0.06790123456790124,35.24074074074074,0)" xlink:href="#aB"/><use transform="matrix(0.06790123456790124,0,0,0.06790123456790124,42.03086419753087,0)" xlink:href="#aA"/></g><path fill="#666" d="M240-154L185 4h-14l-41-109L90 4H77L20-153c-7-3-23 1-20-12h79v8l-27 4L91-41l40-108h14l40 109 38-113-28-4v-8h63v8" id="aQ"/><g id="z"><use transform="matrix(0.04320987654320988,0,0,0.04320987654320988,0,0)" xlink:href="#aP"/><use transform="matrix(0.04320987654320988,0,0,0.04320987654320988,7.777777777777779,0)" xlink:href="#aO"/><use transform="matrix(0.04320987654320988,0,0,0.04320987654320988,15.555555555555557,0)" xlink:href="#aQ"/><use transform="matrix(0.04320987654320988,0,0,0.04320987654320988,26.746913580246915,0)" xlink:href="#aM"/></g><path fill="#666" d="M124-13C89 8 26 15 26-45v-108c-8-3-24 2-21-12h50v118c-3 37 42 32 69 25v-131l-25-4v-8h54v153c8 3 24-2 21 12h-48" id="aR"/><g id="A"><use transform="matrix(0.04320987654320988,0,0,0.04320987654320988,0,0)" xlink:href="#aR"/><use transform="matrix(0.04320987654320988,0,0,0.04320987654320988,7.777777777777779,0)" xlink:href="#aH"/></g><path fill="#666" d="M103-236c-39-15-35 32-34 71h44v15H69v136l35 6v8H15v-8l25-6v-136H11v-9l29-7c-6-59 23-100 80-84v36c-15 2-12-14-17-22" id="aS"/><g id="B"><use transform="matrix(0.04320987654320988,0,0,0.04320987654320988,0,0)" xlink:href="#aB"/><use transform="matrix(0.04320987654320988,0,0,0.04320987654320988,4.320987654320988,0)" xlink:href="#aA"/><use transform="matrix(0.04320987654320988,0,0,0.04320987654320988,11.19135802469136,0)" xlink:href="#aS"/><use transform="matrix(0.04320987654320988,0,0,0.04320987654320988,16.333333333333336,0)" xlink:href="#aD"/></g><path fill="#666" d="M10 0v-8l90-143c-23 2-54-4-70 6-5 8 1 26-14 24v-44h122v8L47-14c29-2 65 3 86-8l9-35h8l-5 57H10" id="aT"/><path fill="#666" d="M126-118c4-37-42-32-68-25v131l24 4v8H8C5-13 21-9 28-12v-141c-7-3-23 1-20-12h48l1 13c22-15 77-30 92 2 32-22 104-36 104 29v109c8 3 24-2 21 12h-75v-8l25-4v-106c3-39-45-31-72-24 7 37 1 88 3 130l25 4v8h-78v-8l24-4v-106" id="aU"/><g id="C"><use transform="matrix(0.04320987654320988,0,0,0.04320987654320988,0,0)" xlink:href="#aT"/><use transform="matrix(0.04320987654320988,0,0,0.04320987654320988,6.870370370370371,0)" xlink:href="#aO"/><use transform="matrix(0.04320987654320988,0,0,0.04320987654320988,14.648148148148149,0)" xlink:href="#aO"/><use transform="matrix(0.04320987654320988,0,0,0.04320987654320988,22.425925925925927,0)" xlink:href="#aU"/></g><g id="D"><use transform="matrix(0.04320987654320988,0,0,0.04320987654320988,0,0)" xlink:href="#aF"/><use transform="matrix(0.04320987654320988,0,0,0.04320987654320988,5.1419753086419755,0)" xlink:href="#aO"/><use transform="matrix(0.04320987654320988,0,0,0.04320987654320988,12.919753086419751,0)" xlink:href="#aD"/><use transform="matrix(0.04320987654320988,0,0,0.04320987654320988,17.24074074074074,0)" xlink:href="#aG"/><use transform="matrix(0.04320987654320988,0,0,0.04320987654320988,24.111111111111107,0)" xlink:href="#aD"/><use transform="matrix(0.04320987654320988,0,0,0.04320987654320988,28.432098765432098,0)" xlink:href="#aA"/></g><g id="E"><use transform="matrix(0.04320987654320988,0,0,0.04320987654320988,0,0)" xlink:href="#aF"/><use transform="matrix(0.04320987654320988,0,0,0.04320987654320988,5.1419753086419755,0)" xlink:href="#aJ"/><use transform="matrix(0.04320987654320988,0,0,0.04320987654320988,9.462962962962964,0)" xlink:href="#aE"/><use transform="matrix(0.04320987654320988,0,0,0.04320987654320988,17.24074074074074,0)" xlink:href="#aI"/><use transform="matrix(0.04320987654320988,0,0,0.04320987654320988,25.018518518518523,0)" xlink:href="#aD"/></g><path fill="#666" d="M178-68c0 79-95 82-154 59v-54h12c1 35 22 52 60 52 50 0 69-58 33-82-39-24-105-21-105-85 0-67 86-66 142-53v49h-12l-6-29c-31-27-121-7-89 42 28 43 119 24 119 101" id="aV"/><g id="F"><use transform="matrix(0.06790123456790124,0,0,0.06790123456790124,0,0)" xlink:href="#aV"/><use transform="matrix(0.06790123456790124,0,0,0.06790123456790124,13.580246913580249,0)" xlink:href="#aC"/><use transform="matrix(0.06790123456790124,0,0,0.06790123456790124,24.376543209876544,0)" xlink:href="#aF"/><use transform="matrix(0.06790123456790124,0,0,0.06790123456790124,32.45679012345679,0)" xlink:href="#aA"/><use transform="matrix(0.06790123456790124,0,0,0.06790123456790124,43.25308641975308,0)" xlink:href="#aA"/><use transform="matrix(0.06790123456790124,0,0,0.06790123456790124,54.04938271604939,0)" xlink:href="#aM"/></g><g id="G"><use transform="matrix(0.06790123456790124,0,0,0.06790123456790124,0,0)" xlink:href="#aN"/><use transform="matrix(0.06790123456790124,0,0,0.06790123456790124,17.58641975308642,0)" xlink:href="#aJ"/><use transform="matrix(0.06790123456790124,0,0,0.06790123456790124,24.376543209876544,0)" xlink:href="#az"/><use transform="matrix(0.06790123456790124,0,0,0.06790123456790124,33.88271604938272,0)" xlink:href="#aH"/><use transform="matrix(0.06790123456790124,0,0,0.06790123456790124,46.104938271604944,0)" xlink:href="#aG"/><use transform="matrix(0.06790123456790124,0,0,0.06790123456790124,56.90123456790124,0)" xlink:href="#aB"/><use transform="matrix(0.06790123456790124,0,0,0.06790123456790124,63.69135802469137,0)" xlink:href="#aL"/></g><path fill="#666" d="M164-154L98 4H85L17-153c-7-3-20 0-17-12h77v8l-26 4L99-38l46-115-26-4v-8h61v8" id="aW"/><g id="H"><use transform="matrix(0.06790123456790124,0,0,0.06790123456790124,0,0)" xlink:href="#aH"/><use transform="matrix(0.06790123456790124,0,0,0.06790123456790124,12.222222222222223,0)" xlink:href="#aA"/><use transform="matrix(0.06790123456790124,0,0,0.06790123456790124,23.01851851851852,0)" xlink:href="#aF"/><use transform="matrix(0.06790123456790124,0,0,0.06790123456790124,31.098765432098766,0)" xlink:href="#az"/><use transform="matrix(0.06790123456790124,0,0,0.06790123456790124,40.60493827160494,0)" xlink:href="#aH"/><use transform="matrix(0.06790123456790124,0,0,0.06790123456790124,52.82716049382716,0)" xlink:href="#aA"/><use transform="matrix(0.06790123456790124,0,0,0.06790123456790124,63.623456790123456,0)" xlink:href="#aC"/><use transform="matrix(0.06790123456790124,0,0,0.06790123456790124,74.41975308641975,0)" xlink:href="#aD"/><use transform="matrix(0.06790123456790124,0,0,0.06790123456790124,81.20987654320987,0)" xlink:href="#aJ"/><use transform="matrix(0.06790123456790124,0,0,0.06790123456790124,88,0)" xlink:href="#aW"/><use transform="matrix(0.06790123456790124,0,0,0.06790123456790124,100.22222222222223,0)" xlink:href="#aA"/></g></defs></g></svg>